{"accessors" : [{"bufferView" : 0, "byteOffset" : 0, "componentType" : 5123, "count" : 9855, "type" : "SCALAR", "max" : [9854], "min" : [0]}, {"bufferView" : 1, "byteOffset" : 0, "componentType" : 5126, "count" : 9855, "type" : "VEC3", "max" : [1.4356765747070312, 1.0870355367660522, 2.005801200866699], "min" : [-0.9581798911094666, -2.785750150680542, -0.3946094512939453], "name" : "POSITION"}, {"bufferView" : 1, "byteOffset" : 12, "componentType" : 5126, "count" : 9855, "type" : "VEC3", "max" : [1.0000044107437134, 1.0000044107437134, 1.0000044107437134], "min" : [-1.0000044107437134, -1.0000044107437134, -1.0000044107437134], "name" : "NORMAL"}, {"bufferView" : 1, "byteOffset" : 24, "componentType" : 5126, "count" : 9855, "type" : "VEC2", "max" : [0.9730731248855591, -0.0004999486845918], "min" : [0.0005000036908313632, -1.0722156763076782], "name" : "TEXCOORD_0"}, {"bufferView" : 0, "byteOffset" : 19712, "componentType" : 5123, "count" : 1536, "type" : "SCALAR", "max" : [1535], "min" : [0]}, {"bufferView" : 2, "byteOffset" : 0, "componentType" : 5126, "count" : 1536, "type" : "VEC3", "max" : [0.7618638277053833, 0.8162407875061035, 1.1421504020690918], "min" : [-0.8088199496269226, -2.758563995361328, -0.3704562485218048], "name" : "POSITION"}, {"bufferView" : 2, "byteOffset" : 12, "componentType" : 5126, "count" : 1536, "type" : "VEC3", "max" : [1.0000044107437134, 1.0000044107437134, 1.0000044107437134], "min" : [-1.0000044107437134, -1.0000044107437134, -1.0000044107437134], "name" : "NORMAL"}, {"bufferView" : 2, "byteOffset" : 24, "componentType" : 5126, "count" : 1536, "type" : "VEC2", "max" : [3009.906005859375, -0], "min" : [0, -1048.398681640625], "name" : "TEXCOORD_0"}, {"bufferView" : 0, "byteOffset" : 22784, "componentType" : 5123, "count" : 1020, "type" : "SCALAR", "max" : [1019], "min" : [0]}, {"bufferView" : 3, "byteOffset" : 0, "componentType" : 5126, "count" : 1020, "type" : "VEC3", "max" : [1.0309967994689941, 0.7832636833190918, 1.5167434215545654], "min" : [0.6945125460624695, -1.1003354787826538, 0.5067251324653625], "name" : "POSITION"}, {"bufferView" : 3, "byteOffset" : 12, "componentType" : 5126, "count" : 1020, "type" : "VEC3", "max" : [1.0000044107437134, 1.0000044107437134, 1.0000044107437134], "min" : [-1.0000044107437134, -1.0000044107437134, -1.0000044107437134], "name" : "NORMAL"}, {"bufferView" : 3, "byteOffset" : 24, "componentType" : 5126, "count" : 1020, "type" : "VEC2", "max" : [938.5467529296875, 503.1943359375], "min" : [-938.5469360351562, -495.6943359375], "name" : "TEXCOORD_0"}, {"bufferView" : 0, "byteOffset" : 24824, "componentType" : 5123, "count" : 24, "type" : "SCALAR", "max" : [23], "min" : [0]}, {"bufferView" : 4, "byteOffset" : 0, "componentType" : 5126, "count" : 24, "type" : "VEC3", "max" : [0.6995126008987427, 0.7802923917770386, 1.5077224969863892], "min" : [0.6995126008987427, -1.0968011617660522, 0.516333818435669], "name" : "POSITION"}, {"bufferView" : 4, "byteOffset" : 12, "componentType" : 5126, "count" : 24, "type" : "VEC3", "max" : [1.0000044107437134, 0, 0], "min" : [1.0000042915344238, 0, 0], "name" : "NORMAL"}, {"bufferView" : 4, "byteOffset" : 24, "componentType" : 5126, "count" : 24, "type" : "VEC2", "max" : [1, -0], "min" : [0, -1], "name" : "TEXCOORD_0"}, {"bufferView" : 0, "byteOffset" : 24872, "componentType" : 5123, "count" : 510, "type" : "SCALAR", "max" : [509], "min" : [0]}, {"bufferView" : 5, "byteOffset" : 0, "componentType" : 5126, "count" : 510, "type" : "VEC3", "max" : [0.28896746039390564, 0.895917534828186, 1.0457502603530884], "min" : [0.16721975803375244, 0.8768203258514404, 0.9240025877952576], "name" : "POSITION"}, {"bufferView" : 5, "byteOffset" : 12, "componentType" : 5126, "count" : 510, "type" : "VEC3", "max" : [1.0000044107437134, 1.0000044107437134, 1.0000044107437134], "min" : [-1.0000044107437134, 0, -1.0000044107437134], "name" : "NORMAL"}, {"bufferView" : 5, "byteOffset" : 24, "componentType" : 5126, "count" : 510, "type" : "VEC2", "max" : [1, -0], "min" : [-0.08333337306976318, -1], "name" : "TEXCOORD_0"}, {"bufferView" : 0, "byteOffset" : 25892, "componentType" : 5123, "count" : 660, "type" : "SCALAR", "max" : [659], "min" : [0]}, {"bufferView" : 6, "byteOffset" : 0, "componentType" : 5126, "count" : 660, "type" : "VEC3", "max" : [0.6672244071960449, -2.7340385913848877, 0.36553043127059937], "min" : [-0.7141807079315186, -2.7483272552490234, 0.197330042719841], "name" : "POSITION"}, {"bufferView" : 6, "byteOffset" : 12, "componentType" : 5126, "count" : 660, "type" : "VEC3", "max" : [0.9468172788619995, -0.3217781186103821, 0.9468173384666443], "min" : [-0.9468175768852234, -1.0000044107437134, -0.9468169808387756], "name" : "NORMAL"}, {"bufferView" : 6, "byteOffset" : 24, "componentType" : 5126, "count" : 660, "type" : "VEC2", "max" : [0.9375, -1], "min" : [0.06250007450580597, -1], "name" : "TEXCOORD_0"}, {"bufferView" : 0, "byteOffset" : 27212, "componentType" : 5123, "count" : 5376, "type" : "SCALAR", "max" : [5375], "min" : [0]}, {"bufferView" : 7, "byteOffset" : 0, "componentType" : 5126, "count" : 5376, "type" : "VEC3", "max" : [0.7546140551567078, 0.38793909549713135, -0.06945379823446274], "min" : [-0.8015705943107605, -2.5773770809173584, -0.5894968509674072], "name" : "POSITION"}, {"bufferView" : 7, "byteOffset" : 12, "componentType" : 5126, "count" : 5376, "type" : "VEC3", "max" : [0.9868425130844116, 1.0000044107437134, 1.0000044107437134], "min" : [-0.9868425130844116, -1.0000044107437134, -1.0000044107437134], "name" : "NORMAL"}, {"bufferView" : 7, "byteOffset" : 24, "componentType" : 5126, "count" : 5376, "type" : "VEC2", "max" : [0.9375, -0.4999997913837433], "min" : [-0.0625, -1], "name" : "TEXCOORD_0"}, {"bufferView" : 0, "byteOffset" : 37964, "componentType" : 5123, "count" : 1320, "type" : "SCALAR", "max" : [1319], "min" : [0]}, {"bufferView" : 8, "byteOffset" : 0, "componentType" : 5126, "count" : 1320, "type" : "VEC3", "max" : [0.7485191226005554, 0.2882309854030609, -0.16916196048259735], "min" : [-0.7954757213592529, -2.4776690006256104, -0.48978865146636963], "name" : "POSITION"}, {"bufferView" : 8, "byteOffset" : 12, "componentType" : 5126, "count" : 1320, "type" : "VEC3", "max" : [0.9894431233406067, 0.7058168649673462, 0.705812931060791], "min" : [-0.9894430637359619, -0.705814778804779, -0.705812394618988], "name" : "NORMAL"}, {"bufferView" : 8, "byteOffset" : 24, "componentType" : 5126, "count" : 1320, "type" : "VEC2", "max" : [0.9375000596046448, -1], "min" : [0.062499865889549255, -1], "name" : "TEXCOORD_0"}, {"bufferView" : 0, "byteOffset" : 40604, "componentType" : 5123, "count" : 174, "type" : "SCALAR", "max" : [173], "min" : [0]}, {"bufferView" : 9, "byteOffset" : 0, "componentType" : 5126, "count" : 174, "type" : "VEC3", "max" : [0.8979272246360779, -1.3674348592758179, 1.1351311206817627], "min" : [-0.9448834657669067, -2.2889721393585205, 0.49640005826950073], "name" : "POSITION"}, {"bufferView" : 9, "byteOffset" : 12, "componentType" : 5126, "count" : 174, "type" : "VEC3", "max" : [0.9999948740005493, 0.9659350514411926, 0.5798294544219971], "min" : [-0.9999948740005493, -0.8371902108192444, -0.022472470998764038], "name" : "NORMAL"}, {"bufferView" : 9, "byteOffset" : 24, "componentType" : 5126, "count" : 174, "type" : "VEC2", "max" : [1, -0], "min" : [0, -1], "name" : "TEXCOORD_0"}], "asset" : {"generator" : "Aspose.3D 23.9.0", "version" : "2.0"}, "buffers" : [{"uri" : "data:application/octet-stream;base64,", "byteLength" : 696192}], "bufferViews" : [{"buffer" : 0, "byteOffset" : 0, "byteLength" : 40952, "target" : 34963}, {"buffer" : 0, "byteOffset" : 40956, "byteLength" : 315360, "byteStride" : 32, "target" : 34962}, {"buffer" : 0, "byteOffset" : 356320, "byteLength" : 49152, "byteStride" : 32, "target" : 34962}, {"buffer" : 0, "byteOffset" : 405476, "byteLength" : 32640, "byteStride" : 32, "target" : 34962}, {"buffer" : 0, "byteOffset" : 438120, "byteLength" : 768, "byteStride" : 32, "target" : 34962}, {"buffer" : 0, "byteOffset" : 438892, "byteLength" : 16320, "byteStride" : 32, "target" : 34962}, {"buffer" : 0, "byteOffset" : 455216, "byteLength" : 21120, "byteStride" : 32, "target" : 34962}, {"buffer" : 0, "byteOffset" : 476340, "byteLength" : 172032, "byteStride" : 32, "target" : 34962}, {"buffer" : 0, "byteOffset" : 648376, "byteLength" : 42240, "byteStride" : 32, "target" : 34962}, {"buffer" : 0, "byteOffset" : 690620, "byteLength" : 5568, "byteStride" : 32, "target" : 34962}], "images" : [{"uri" : "data:image/png;base64,"}, {"uri" : "data:image/jpeg;base64,"}, {"uri" : "data:image/jpeg;base64,"}, {"uri" : "data:image/jpeg;base64,"}, {"uri" : "data:image/jpeg;base64,"}, {"uri" : "data:image/jpeg;base64,"}, {"uri" : "data:image/jpeg;base64,"}, {"uri" : "data:image/jpeg;base64,"}, {"uri" : "data:image/jpeg;base64,"}], "materials" : [{"name" : "Body", "pbrMetallicRoughness" : {"baseColorFactor" : [1, 1, 1, 1], "baseColorTexture" : {"index" : 0, "texCoord" : 0}, "metallicFactor" : 0, "roughnessFactor" : 0}, "emissiveFactor" : [0, 0, 0], "alphaMode" : "OPAQUE", "doubleSided" : false}, {"name" : "black", "pbrMetallicRoughness" : {"baseColorFactor" : [1, 1, 1, 1], "baseColorTexture" : {"index" : 1, "texCoord" : 0}, "metallicFactor" : 0, "roughnessFactor" : 0}, "emissiveFactor" : [0, 0, 0], "alphaMode" : "OPAQUE", "doubleSided" : false}, {"name" : "crome", "pbrMetallicRoughness" : {"baseColorFactor" : [1, 1, 1, 1], "baseColorTexture" : {"index" : 2, "texCoord" : 0}, "metallicFactor" : 0, "roughnessFactor" : 0}, "emissiveFactor" : [0, 0, 0], "alphaMode" : "OPAQUE", "doubleSided" : false}, {"name" : "frostedGlass", "pbrMetallicRoughness" : {"baseColorFactor" : [1, 1, 1, 1], "baseColorTexture" : {"index" : 3, "texCoord" : 0}, "metallicFactor" : 0, "roughnessFactor" : 0}, "emissiveFactor" : [0, 0, 0], "alphaMode" : "OPAQUE", "doubleSided" : false}, {"name" : "handle", "pbrMetallicRoughness" : {"baseColorFactor" : [1, 1, 1, 1], "baseColorTexture" : {"index" : 4, "texCoord" : 0}, "metallicFactor" : 0, "roughnessFactor" : 0}, "emissiveFactor" : [0, 0, 0], "alphaMode" : "OPAQUE", "doubleSided" : false}, {"name" : "Light_shiro", "pbrMetallicRoughness" : {"baseColorFactor" : [1, 1, 1, 1], "baseColorTexture" : {"index" : 5, "texCoord" : 0}, "metallicFactor" : 0, "roughnessFactor" : 0}, "emissiveFactor" : [0, 0, 0], "alphaMode" : "OPAQUE", "doubleSided" : false}, {"name" : "tire", "pbrMetallicRoughness" : {"baseColorFactor" : [1, 1, 1, 1], "baseColorTexture" : {"index" : 6, "texCoord" : 0}, "metallicFactor" : 0, "roughnessFactor" : 0}, "emissiveFactor" : [0, 0, 0], "alphaMode" : "OPAQUE", "doubleSided" : false}, {"name" : "wheel", "pbrMetallicRoughness" : {"baseColorFactor" : [1, 1, 1, 1], "baseColorTexture" : {"index" : 7, "texCoord" : 0}, "metallicFactor" : 0, "roughnessFactor" : 0}, "emissiveFactor" : [0, 0, 0], "alphaMode" : "OPAQUE", "doubleSided" : false}, {"name" : "window", "pbrMetallicRoughness" : {"baseColorFactor" : [1, 1, 1, 1], "baseColorTexture" : {"index" : 8, "texCoord" : 0}, "metallicFactor" : 0, "roughnessFactor" : 0}, "emissiveFactor" : [0, 0, 0], "alphaMode" : "OPAQUE", "doubleSided" : false}], "meshes" : [{"primitives" : [{"attributes" : {"POSITION" : 1, "NORMAL" : 2, "TEXCOORD_0" : 3}, "indices" : 0, "material" : 0, "mode" : 4}, {"attributes" : {"POSITION" : 5, "NORMAL" : 6, "TEXCOORD_0" : 7}, "indices" : 4, "material" : 1, "mode" : 4}, {"attributes" : {"POSITION" : 9, "NORMAL" : 10, "TEXCOORD_0" : 11}, "indices" : 8, "material" : 2, "mode" : 4}, {"attributes" : {"POSITION" : 13, "NORMAL" : 14, "TEXCOORD_0" : 15}, "indices" : 12, "material" : 3, "mode" : 4}, {"attributes" : {"POSITION" : 17, "NORMAL" : 18, "TEXCOORD_0" : 19}, "indices" : 16, "material" : 4, "mode" : 4}, {"attributes" : {"POSITION" : 21, "NORMAL" : 22, "TEXCOORD_0" : 23}, "indices" : 20, "material" : 5, "mode" : 4}, {"attributes" : {"POSITION" : 25, "NORMAL" : 26, "TEXCOORD_0" : 27}, "indices" : 24, "material" : 6, "mode" : 4}, {"attributes" : {"POSITION" : 29, "NORMAL" : 30, "TEXCOORD_0" : 31}, "indices" : 28, "material" : 7, "mode" : 4}, {"attributes" : {"POSITION" : 33, "NORMAL" : 34, "TEXCOORD_0" : 35}, "indices" : 32, "material" : 8, "mode" : 4}], "name" : ""}], "nodes" : [{"matrix" : [1, 0, 0, 0, 0, 6.123233995736766E-17, -1, 0, 0, 1, 6.123233995736766E-17, 0, 0.02347821183502674, 0.5948010087013246, -1.2340760231018066, 1], "mesh" : 0, "name" : "KitchenCar"}], "samplers" : [{"magFilter" : 9729, "minFilter" : 9729, "wrapS" : 10497, "wrapT" : 10497}, {"magFilter" : 9729, "minFilter" : 9729, "wrapS" : 10497, "wrapT" : 10497}, {"magFilter" : 9729, "minFilter" : 9729, "wrapS" : 10497, "wrapT" : 10497}, {"magFilter" : 9729, "minFilter" : 9729, "wrapS" : 10497, "wrapT" : 10497}, {"magFilter" : 9729, "minFilter" : 9729, "wrapS" : 10497, "wrapT" : 10497}, {"magFilter" : 9729, "minFilter" : 9729, "wrapS" : 10497, "wrapT" : 10497}, {"magFilter" : 9729, "minFilter" : 9729, "wrapS" : 10497, "wrapT" : 10497}, {"magFilter" : 9729, "minFilter" : 9729, "wrapS" : 10497, "wrapT" : 10497}, {"magFilter" : 9729, "minFilter" : 9729, "wrapS" : 10497, "wrapT" : 10497}], "scene" : 0, "scenes" : [{"nodes" : [0]}], "textures" : [{"sampler" : 0, "source" : 0, "name" : " #20"}, {"sampler" : 1, "source" : 1, "name" : " #19"}, {"sampler" : 2, "source" : 2, "name" : " #18"}, {"sampler" : 3, "source" : 3, "name" : " #14"}, {"sampler" : 4, "source" : 4, "name" : " #17"}, {"sampler" : 5, "source" : 5, "name" : " #15"}, {"sampler" : 6, "source" : 6, "name" : " #13"}, {"sampler" : 7, "source" : 7, "name" : " #16"}, {"sampler" : 8, "source" : 8, "name" : " #12"}]}